<mxfile host="app.diagrams.net" agent="Mozilla/5.0 (X11; Linux x86_64; rv:130.0) Gecko/20100101 Firefox/130.0" version="24.7.12">
  <diagram name="Page-1" id="1Wk-k7h3-JRvkKGC66HL">
    <mxGraphModel dx="880" dy="478" grid="1" gridSize="10" guides="1" tooltips="1" connect="1" arrows="1" fold="1" page="1" pageScale="1" pageWidth="850" pageHeight="1100" math="0" shadow="0">
      <root>
        <mxCell id="0" />
        <mxCell id="1" parent="0" />
        <mxCell id="ki1pwFowveb-X2XErKMl-5" value="Agenda" style="swimlane;fontStyle=1;align=center;verticalAlign=top;childLayout=stackLayout;horizontal=1;startSize=26;horizontalStack=0;resizeParent=1;resizeParentMax=0;resizeLast=0;collapsible=1;marginBottom=0;whiteSpace=wrap;html=1;" vertex="1" parent="1">
          <mxGeometry x="145" y="140" width="560" height="270" as="geometry" />
        </mxCell>
        <mxCell id="ki1pwFowveb-X2XErKMl-6" value="&lt;div&gt;+ horariosDisponiveis: Map&amp;lt;LocalDate, List&amp;lt;LocalTime&amp;gt;&amp;gt;&lt;/div&gt;&lt;div&gt;+ consultasAgendadas: Map&amp;lt;LocalDate, List&amp;lt;Consulta&amp;gt;&amp;gt;&lt;/div&gt;&lt;div&gt;+ examesAgendados: Map&amp;lt;LocalDate, List&amp;lt;Exame&amp;gt;&amp;gt;&lt;/div&gt;&lt;div&gt;+ consultasCanceladas: Map&amp;lt;LocalDate, List&amp;lt;Consulta&amp;gt;&amp;gt;&lt;/div&gt;&lt;div&gt;+ examesCancelados: Map&amp;lt;LocalDate, List&amp;lt;Exame&amp;gt;&amp;gt;&lt;br&gt;&lt;/div&gt;" style="text;strokeColor=none;fillColor=none;align=left;verticalAlign=top;spacingLeft=4;spacingRight=4;overflow=hidden;rotatable=0;points=[[0,0.5],[1,0.5]];portConstraint=eastwest;whiteSpace=wrap;html=1;" vertex="1" parent="ki1pwFowveb-X2XErKMl-5">
          <mxGeometry y="26" width="560" height="94" as="geometry" />
        </mxCell>
        <mxCell id="ki1pwFowveb-X2XErKMl-7" value="" style="line;strokeWidth=1;fillColor=none;align=left;verticalAlign=middle;spacingTop=-1;spacingLeft=3;spacingRight=3;rotatable=0;labelPosition=right;points=[];portConstraint=eastwest;strokeColor=inherit;" vertex="1" parent="ki1pwFowveb-X2XErKMl-5">
          <mxGeometry y="120" width="560" height="8" as="geometry" />
        </mxCell>
        <mxCell id="ki1pwFowveb-X2XErKMl-8" value="&lt;div&gt;+ adicionarHorarioConsulta(Consulta consulta): Consulta&lt;/div&gt;&lt;div&gt;+ cancelarHorarioConsulta(Consulta consulta): boolean&lt;/div&gt;&lt;div&gt;+ remarcarHorarioConsulta(Consulta consulta, LocalDate novaData, LocalTime novoHorario): Consulta&lt;/div&gt;&lt;div&gt;+ adicionarHorarioExame(Exame exame): Exame&lt;/div&gt;&lt;div&gt;+ cancelarHorarioExame(Exame exame): boolean&lt;/div&gt;&lt;div&gt;+ remarcarHorarioConsulta(Exame exame, LocalDate novaData, LocalTime novoHorario): Exame&lt;/div&gt;&lt;div&gt;+ getHorariosDisponiveis(LocalDate data): List&amp;lt;LocalTime&amp;gt;&lt;/div&gt;&lt;div&gt;+ getConsultasAgendadas(LocalDate data): List&amp;lt;Consulta&amp;gt;&lt;/div&gt;&lt;div&gt;+ getExamesAgendados(LocalDate data): List&amp;lt;Exame&amp;gt;&lt;br&gt;&lt;/div&gt;" style="text;strokeColor=none;fillColor=none;align=left;verticalAlign=top;spacingLeft=4;spacingRight=4;overflow=hidden;rotatable=0;points=[[0,0.5],[1,0.5]];portConstraint=eastwest;whiteSpace=wrap;html=1;" vertex="1" parent="ki1pwFowveb-X2XErKMl-5">
          <mxGeometry y="128" width="560" height="142" as="geometry" />
        </mxCell>
      </root>
    </mxGraphModel>
  </diagram>
</mxfile>
